<svg width="270" height="82" viewBox="0 0 270 82" fill="none" xmlns="http://www.w3.org/2000/svg">
<rect x="0.5" y="0.685547" width="269" height="80.1162" rx="6.5" fill="white"/>
<rect x="0.5" y="0.685547" width="269" height="80.1162" rx="6.5" stroke="black"/>
<path d="M183.433 39.1232V43.7691H180.202V46.8159H183.433V57.1684C183.433 60.7033 185.207 62.1173 189.671 62.1173C190.455 62.1173 191.203 62.0332 191.856 61.9322V58.919C191.296 58.9695 190.941 59.0032 190.325 59.0032C188.326 59.0032 187.449 58.1615 187.449 56.2425V46.8159H191.856V43.7691H187.449V39.1232H183.433Z" fill="black"/>
<path d="M203.227 62.3698C209.167 62.3698 212.809 58.7843 212.809 52.8422C212.809 46.9338 209.148 43.3315 203.227 43.3315C197.288 43.3315 193.628 46.9338 193.628 52.8422C193.628 58.7843 197.27 62.3698 203.227 62.3698ZM203.227 59.1547C199.735 59.1547 197.774 56.8485 197.774 52.8422C197.774 48.8696 199.735 46.5466 203.227 46.5466C206.701 46.5466 208.681 48.8696 208.681 52.8422C208.681 56.8317 206.701 59.1547 203.227 59.1547Z" fill="black"/>
<path d="M215.925 62.0163H219.94V51.1926C219.94 48.6171 222.088 46.8833 225.132 46.8833C225.842 46.8833 227.037 47.0011 227.373 47.1021V43.5335C226.944 43.4325 226.178 43.382 225.58 43.382C222.928 43.382 220.669 44.695 220.09 46.4961H219.791V43.685H215.925V62.0163Z" fill="black"/>
<path d="M237.344 46.412C240.313 46.412 242.256 48.2804 242.349 51.1589H232.077C232.301 48.2973 234.374 46.412 237.344 46.412ZM242.331 57.0674C241.583 58.4982 239.921 59.2893 237.493 59.2893C234.281 59.2893 232.208 57.2525 232.077 54.0374V53.8354H246.439V52.5729C246.439 46.8159 243.022 43.3315 237.363 43.3315C231.629 43.3315 227.987 47.0516 227.987 52.9096C227.987 58.7675 231.554 62.3698 237.381 62.3698C242.032 62.3698 245.281 60.3498 246.197 57.0674H242.331Z" fill="black"/>
<path d="M157.1 55.2468C157.41 59.7482 161.572 62.627 167.766 62.627C174.387 62.627 178.529 59.6086 178.529 54.7932C178.529 51.0072 176.168 48.9135 170.438 47.7097L167.36 47.0293C163.72 46.2616 162.249 45.2322 162.249 43.4351C162.249 41.167 164.533 39.684 167.96 39.684C171.212 39.684 173.457 41.1321 173.864 43.4526H178.084C177.832 39.2129 173.69 36.2295 168.018 36.2295C161.92 36.2295 157.855 39.2129 157.855 43.6969C157.855 47.3956 160.159 49.594 165.211 50.6583L168.812 51.4434C172.509 52.2285 174.135 53.38 174.135 55.2992C174.135 57.5324 171.58 59.155 168.095 59.155C164.359 59.155 161.765 57.6371 161.397 55.2468H157.1Z" fill="black"/>
<path d="M115.503 43.382C112.739 43.382 110.349 44.6276 109.116 46.7149H108.817V43.685H104.951V68.1099H108.967V59.2388H109.284C110.349 61.1747 112.646 62.3193 115.541 62.3193C120.677 62.3193 123.945 58.6665 123.945 52.8422C123.945 47.0179 120.677 43.382 115.503 43.382ZM114.364 59.0705C111.002 59.0705 108.892 56.6802 108.892 52.8591C108.892 49.0211 111.002 46.6308 114.383 46.6308C117.782 46.6308 119.818 48.9706 119.818 52.8422C119.818 56.7307 117.782 59.0705 114.364 59.0705Z" fill="black"/>
<path d="M137.996 43.382C135.232 43.382 132.841 44.6276 131.609 46.7149H131.31V43.685H127.444V68.1099H131.459V59.2388H131.777C132.841 61.1747 135.139 62.3193 138.034 62.3193C143.17 62.3193 146.438 58.6665 146.438 52.8422C146.438 47.0179 143.17 43.382 137.996 43.382ZM136.857 59.0705C133.495 59.0705 131.385 56.6802 131.385 52.8591C131.385 49.0211 133.495 46.6308 136.876 46.6308C140.275 46.6308 142.311 48.9706 142.311 52.8422C142.311 56.7307 140.275 59.0705 136.857 59.0705Z" fill="black"/>
<path d="M97.7466 62.0163H102.354L92.2683 36.8401H87.603L77.5176 62.0163H81.9699L84.5445 55.3341H95.1914L97.7466 62.0163ZM89.7131 41.4113H90.0421L94.0879 52.054H85.6479L89.7131 41.4113Z" fill="black"/>
<path d="M80.2148 17.8505V29.9957H85.0801C89.0956 29.9957 91.4209 27.7653 91.4209 23.8852C91.4209 20.0641 89.077 17.8505 85.0801 17.8505H80.2148ZM82.3066 19.5675H84.8467C87.6389 19.5675 89.2917 21.1666 89.2917 23.9105C89.2917 26.6964 87.6669 28.2787 84.8467 28.2787H82.3066V19.5675Z" fill="black"/>
<path d="M98.5423 30.1724C101.512 30.1724 103.333 28.3797 103.333 25.4086C103.333 22.4544 101.503 20.6532 98.5423 20.6532C95.5727 20.6532 93.7424 22.4544 93.7424 25.4086C93.7424 28.3797 95.5634 30.1724 98.5423 30.1724ZM98.5423 28.5648C96.7961 28.5648 95.8155 27.4118 95.8155 25.4086C95.8155 23.4223 96.7961 22.2608 98.5423 22.2608C100.279 22.2608 101.269 23.4223 101.269 25.4086C101.269 27.4033 100.279 28.5648 98.5423 28.5648Z" fill="black"/>
<path d="M118.84 20.83H116.832L115.021 27.8242H114.862L112.77 20.83H110.847L108.755 27.8242H108.605L106.784 20.83H104.749L107.55 29.9957H109.614L111.706 23.2455H111.864L113.966 29.9957H116.048L118.84 20.83Z" fill="black"/>
<path d="M121.152 29.9957H123.16V24.6343C123.16 23.2035 124.103 22.3113 125.588 22.3113C127.073 22.3113 127.783 23.0435 127.783 24.5165V29.9957H129.79V24.062C129.79 21.8821 128.539 20.6532 126.27 20.6532C124.738 20.6532 123.73 21.2676 123.235 22.2861H123.085V20.83H121.152V29.9957Z" fill="black"/>
<path d="M132.952 29.9957H134.96V17.2529H132.952V29.9957Z" fill="black"/>
<path d="M142.511 30.1724C145.481 30.1724 147.302 28.3797 147.302 25.4086C147.302 22.4544 145.471 20.6532 142.511 20.6532C139.542 20.6532 137.711 22.4544 137.711 25.4086C137.711 28.3797 139.532 30.1724 142.511 30.1724ZM142.511 28.5648C140.765 28.5648 139.784 27.4118 139.784 25.4086C139.784 23.4223 140.765 22.2608 142.511 22.2608C144.248 22.2608 145.238 23.4223 145.238 25.4086C145.238 27.4033 144.248 28.5648 142.511 28.5648Z" fill="black"/>
<path d="M153.284 28.6238C152.191 28.6238 151.398 28.144 151.398 27.3192C151.398 26.5112 152.033 26.0819 153.433 25.9978L155.917 25.8547V26.6206C155.917 27.7568 154.797 28.6238 153.284 28.6238ZM152.77 30.1472C154.106 30.1472 155.217 29.6253 155.824 28.7079H155.983V29.9957H157.916V23.7337C157.916 21.7979 156.478 20.6532 153.928 20.6532C151.622 20.6532 149.978 21.6632 149.773 23.2371H151.715C151.939 22.5891 152.714 22.2187 153.835 22.2187C155.208 22.2187 155.917 22.7658 155.917 23.7337V24.5249L153.163 24.668C150.744 24.8026 149.38 25.7537 149.38 27.4033C149.38 29.0782 150.809 30.1472 152.77 30.1472Z" fill="black"/>
<path d="M164.729 30.1472C166.13 30.1472 167.316 29.5496 167.923 28.548H168.082V29.9957H170.005V17.2529H167.997V22.2861H167.848C167.297 21.2761 166.12 20.6785 164.729 20.6785C162.161 20.6785 160.508 22.5133 160.508 25.4086C160.508 28.3123 162.142 30.1472 164.729 30.1472ZM165.299 22.3029C166.98 22.3029 168.035 23.5065 168.035 25.417C168.035 27.336 166.989 28.5228 165.299 28.5228C163.599 28.5228 162.581 27.3528 162.581 25.4086C162.581 23.4812 163.608 22.3029 165.299 22.3029Z" fill="black"/>
<path d="M183.025 30.1724C185.994 30.1724 187.815 28.3797 187.815 25.4086C187.815 22.4544 185.985 20.6532 183.025 20.6532C180.055 20.6532 178.225 22.4544 178.225 25.4086C178.225 28.3797 180.046 30.1724 183.025 30.1724ZM183.025 28.5648C181.279 28.5648 180.298 27.4118 180.298 25.4086C180.298 23.4223 181.279 22.2608 183.025 22.2608C184.762 22.2608 185.752 23.4223 185.752 25.4086C185.752 27.4033 184.762 28.5648 183.025 28.5648Z" fill="black"/>
<path d="M190.473 29.9957H192.481V24.6343C192.481 23.2035 193.424 22.3113 194.909 22.3113C196.394 22.3113 197.103 23.0435 197.103 24.5165V29.9957H199.111V24.062C199.111 21.8821 197.86 20.6532 195.591 20.6532C194.059 20.6532 193.05 21.2676 192.556 22.2861H192.406V20.83H190.473V29.9957Z" fill="black"/>
<path d="M208.358 18.5491V20.8721H206.742V22.3955H208.358V27.5717C208.358 29.3392 209.245 30.0462 211.477 30.0462C211.869 30.0462 212.243 30.0041 212.57 29.9536V28.447C212.289 28.4723 212.112 28.4891 211.804 28.4891C210.805 28.4891 210.366 28.0683 210.366 27.1088V22.3955H212.57V20.8721H210.366V18.5491H208.358Z" fill="black"/>
<path d="M215.265 29.9957H217.272V24.6427C217.272 23.254 218.188 22.3197 219.831 22.3197C221.251 22.3197 222.007 23.0604 222.007 24.5249V29.9957H224.015V24.0788C224.015 21.8989 222.679 20.6617 220.513 20.6617C218.981 20.6617 217.907 21.2761 217.412 22.3029H217.254V17.2529H215.265V29.9957Z" fill="black"/>
<path d="M231.258 22.1935C232.742 22.1935 233.714 23.1277 233.76 24.567H228.624C228.736 23.1361 229.773 22.1935 231.258 22.1935ZM233.751 27.5212C233.377 28.2366 232.546 28.6322 231.332 28.6322C229.726 28.6322 228.689 27.6138 228.624 26.0062V25.9052H235.805V25.2739C235.805 22.3955 234.096 20.6532 231.267 20.6532C228.4 20.6532 226.579 22.5133 226.579 25.4423C226.579 28.3713 228.363 30.1724 231.276 30.1724C233.601 30.1724 235.226 29.1624 235.684 27.5212H233.751Z" fill="black"/>
<path d="M55.7305 41.3535C55.7792 37.9446 57.8104 34.719 61.0327 32.9335C58.9999 30.3169 55.595 28.6578 52.0526 28.5579C48.2743 28.2005 44.6115 30.5956 42.6861 30.5956C40.7235 30.5956 37.7591 28.5934 34.567 28.6526C30.4062 28.7738 26.5272 30.9059 24.5029 34.1845C20.1514 40.9748 23.3972 50.9542 27.5656 56.4429C29.6511 59.1306 32.0885 62.1328 35.2778 62.0264C38.3987 61.9097 39.5643 60.2327 43.3314 60.2327C47.0636 60.2327 48.1572 62.0264 51.4112 61.9587C54.76 61.9097 56.87 59.259 58.8823 56.5459C60.3808 54.6308 61.5338 52.5143 62.2988 50.2746C58.3632 48.7744 55.7351 45.2048 55.7305 41.3535Z" fill="black"/>
<path d="M49.5842 24.9483C51.4102 22.9727 52.3097 20.4334 52.0919 17.8696C49.3023 18.1337 46.7254 19.3354 44.8748 21.2352C43.0652 23.0914 42.1235 25.586 42.3015 28.0517C45.0921 28.0776 47.8355 26.9086 49.5842 24.9483Z" fill="black"/>
</svg>
