<svg width="270" height="82" viewBox="0 0 270 82" fill="none" xmlns="http://www.w3.org/2000/svg">
<rect x="0.5" y="1.15039" width="269" height="80.1162" rx="4.5" fill="white"/>
<rect x="0.5" y="1.15039" width="269" height="80.1162" rx="4.5" stroke="black"/>
<path d="M136.272 44.7595C131.568 44.7595 127.734 48.3874 127.734 53.3842C127.734 58.3505 131.568 62.0088 136.272 62.0088C140.978 62.0088 144.812 58.3505 144.812 53.3842C144.81 48.3874 140.976 44.7595 136.272 44.7595ZM136.272 58.6141C133.694 58.6141 131.472 56.4585 131.472 53.3862C131.472 50.2815 133.696 48.1582 136.272 48.1582C138.85 48.1582 141.072 50.2815 141.072 53.3862C141.072 56.4564 138.85 58.6141 136.272 58.6141ZM117.644 44.7595C112.94 44.7595 109.106 48.3874 109.106 53.3842C109.106 58.3505 112.94 62.0088 117.644 62.0088C122.35 62.0088 126.184 58.3505 126.184 53.3842C126.184 48.3874 122.35 44.7595 117.644 44.7595ZM117.644 58.6141C115.066 58.6141 112.844 56.4585 112.844 53.3862C112.844 50.2815 115.068 48.1582 117.644 48.1582C120.222 48.1582 122.444 50.2815 122.444 53.3862C122.446 56.4564 120.222 58.6141 117.644 58.6141ZM95.488 47.4079V51.0663H104.124C103.866 53.1246 103.19 54.6273 102.158 55.6716C100.902 56.9452 98.936 58.3505 95.488 58.3505C90.172 58.3505 86.016 54.0047 86.016 48.6145C86.016 43.2244 90.172 38.8786 95.488 38.8786C98.356 38.8786 100.45 40.0223 101.996 41.4925L104.542 38.911C102.382 36.8202 99.516 35.2202 95.488 35.2202C88.206 35.2202 82.084 41.2309 82.084 48.6145C82.084 55.9981 88.206 62.0088 95.488 62.0088C99.418 62.0088 102.384 60.7008 104.702 58.2511C107.086 55.8339 107.828 52.4351 107.828 49.6913C107.828 48.8437 107.764 48.0589 107.634 47.4059H95.488V47.4079ZM186.104 50.249C185.396 48.3225 183.236 44.7595 178.822 44.7595C174.44 44.7595 170.798 48.2556 170.798 53.3842C170.798 58.2187 174.408 62.0088 179.24 62.0088C183.138 62.0088 185.394 59.5916 186.33 58.1862L183.43 56.2252C182.464 57.663 181.142 58.6101 179.24 58.6101C177.34 58.6101 175.986 57.7279 175.116 55.9961L186.49 51.2265L186.104 50.249ZM174.504 53.1246C174.408 49.7907 177.05 48.0934 178.952 48.0934C180.434 48.0934 181.69 48.8457 182.11 49.9225L174.504 53.1246ZM165.258 61.4877H168.994V36.1368H165.258V61.4877ZM159.134 46.688H159.006C158.168 45.6741 156.556 44.7595 154.528 44.7595C150.274 44.7595 146.376 48.5496 146.376 53.4186C146.376 58.2532 150.274 62.0109 154.528 62.0109C156.558 62.0109 158.168 61.0963 159.006 60.0519H159.134V61.293C159.134 64.5924 157.394 66.3567 154.592 66.3567C152.304 66.3567 150.886 64.6918 150.306 63.2864L147.052 64.6593C147.986 66.9448 150.466 69.7554 154.592 69.7554C158.974 69.7554 162.68 67.1415 162.68 60.7698V45.2847H159.136V46.688H159.134ZM154.85 58.6141C152.272 58.6141 150.114 56.424 150.114 53.4186C150.114 50.3788 152.272 48.1582 154.85 48.1582C157.394 48.1582 159.392 50.3788 159.392 53.4186C159.392 56.424 157.394 58.6141 154.85 58.6141ZM203.612 36.1368H194.67V61.4877H198.4V51.8835H203.61C207.746 51.8835 211.814 48.8477 211.814 44.0112C211.814 39.1746 207.748 36.1368 203.612 36.1368ZM203.708 48.3549H198.4V39.6654H203.708C206.498 39.6654 208.082 42.0076 208.082 44.0112C208.082 45.9742 206.498 48.3549 203.708 48.3549ZM226.772 44.7149C224.07 44.7149 221.272 45.9215 220.114 48.5963L223.426 49.9976C224.134 48.5963 225.454 48.138 226.836 48.138C228.766 48.138 230.728 49.3121 230.76 51.3988V51.6604C230.084 51.2691 228.636 50.683 226.868 50.683C223.298 50.683 219.662 52.6724 219.662 56.3895C219.662 59.7822 222.59 61.9662 225.87 61.9662C228.378 61.9662 229.762 60.8245 230.63 59.4861H230.758V61.4431H234.362V51.7233C234.364 47.2254 231.048 44.7149 226.772 44.7149ZM226.32 58.608C225.1 58.608 223.394 57.9875 223.394 56.4544C223.394 54.4975 225.518 53.7471 227.352 53.7471C228.99 53.7471 229.764 54.1061 230.76 54.5948C230.47 56.9452 228.476 58.608 226.32 58.608ZM247.486 45.2685L243.208 56.2597H243.08L238.64 45.2685H234.62L241.278 60.6299L237.482 69.1754H241.374L251.636 45.2685H247.486ZM213.874 61.4877H217.604V36.1368H213.874V61.4877Z" fill="black"/>
<path d="M94.8361 21.4219C94.8361 23.1213 94.3401 24.4739 93.3461 25.4838C92.2181 26.6844 90.7461 27.2846 88.9381 27.2846C87.2061 27.2846 85.7321 26.6762 84.5221 25.4595C83.3101 24.2407 82.7041 22.732 82.7041 20.9312C82.7041 19.1284 83.3101 17.6196 84.5221 16.4029C85.7321 15.1841 87.2061 14.5757 88.9381 14.5757C89.7981 14.5757 90.6201 14.7461 91.4001 15.0847C92.1821 15.4254 92.8081 15.8777 93.2761 16.4434L92.2221 17.5142C91.4281 16.5509 90.3341 16.0703 88.9361 16.0703C87.6721 16.0703 86.5801 16.5205 85.6581 17.4209C84.7361 18.3213 84.2761 19.4914 84.2761 20.9292C84.2761 22.3669 84.7361 23.537 85.6581 24.4374C86.5801 25.3378 87.6721 25.788 88.9361 25.788C90.2761 25.788 91.3941 25.3358 92.2881 24.4293C92.8681 23.8392 93.2041 23.0179 93.2941 21.9654H88.9361V20.5033H94.7501C94.8101 20.8217 94.8361 21.1279 94.8361 21.4219Z" fill="black"/>
<path d="M104.056 16.3401H98.5923V20.1972H103.52V21.6593H98.5923V25.5164H104.056V27.013H97.0503V14.8456H104.056V16.3401Z" fill="black"/>
<path d="M110.558 27.013H109.016V16.3401H105.664V14.8456H113.91V16.3401H110.558V27.013Z" fill="black"/>
<path d="M119.876 27.013V14.8456H121.418V27.013H119.876Z" fill="black"/>
<path d="M128.256 27.013H126.714V16.3401H123.362V14.8456H131.608V16.3401H128.256V27.013Z" fill="black"/>
<path d="M147.218 25.4413C146.038 26.6703 144.572 27.2847 142.818 27.2847C141.064 27.2847 139.598 26.6703 138.42 25.4413C137.24 24.2124 136.652 22.7077 136.652 20.9293C136.652 19.1508 137.24 17.6461 138.42 16.4172C139.598 15.1883 141.064 14.5718 142.818 14.5718C144.562 14.5718 146.026 15.1903 147.21 16.4253C148.394 17.6603 148.986 19.1609 148.986 20.9293C148.986 22.7077 148.396 24.2124 147.218 25.4413ZM139.558 24.4213C140.446 25.3339 141.532 25.7881 142.818 25.7881C144.104 25.7881 145.192 25.3318 146.078 24.4213C146.966 23.5088 147.412 22.3447 147.412 20.9293C147.412 19.5138 146.966 18.3498 146.078 17.4372C145.192 16.5246 144.104 16.0704 142.818 16.0704C141.532 16.0704 140.446 16.5267 139.558 17.4372C138.672 18.3498 138.226 19.5138 138.226 20.9293C138.226 22.3447 138.672 23.5088 139.558 24.4213Z" fill="black"/>
<path d="M151.15 27.013V14.8456H153.026L158.858 24.3098H158.924L158.858 21.9655V14.8456H160.4V27.013H158.79L152.688 17.0884H152.622L152.688 19.4327V27.013H151.15Z" fill="black"/>
<path d="M94.8361 21.4219C94.8361 23.1213 94.3401 24.4739 93.3461 25.4838C92.2181 26.6844 90.7461 27.2846 88.9381 27.2846C87.2061 27.2846 85.7321 26.6762 84.5221 25.4595C83.3101 24.2407 82.7041 22.732 82.7041 20.9312C82.7041 19.1284 83.3101 17.6196 84.5221 16.4029C85.7321 15.1841 87.2061 14.5757 88.9381 14.5757C89.7981 14.5757 90.6201 14.7461 91.4001 15.0847C92.1821 15.4254 92.8081 15.8777 93.2761 16.4434L92.2221 17.5142C91.4281 16.5509 90.3341 16.0703 88.9361 16.0703C87.6721 16.0703 86.5801 16.5205 85.6581 17.4209C84.7361 18.3213 84.2761 19.4914 84.2761 20.9292C84.2761 22.3669 84.7361 23.537 85.6581 24.4374C86.5801 25.3378 87.6721 25.788 88.9361 25.788C90.2761 25.788 91.3941 25.3358 92.2881 24.4293C92.8681 23.8392 93.2041 23.0179 93.2941 21.9654H88.9361V20.5033H94.7501C94.8101 20.8217 94.8361 21.1279 94.8361 21.4219Z" stroke="black" stroke-width="0.2" stroke-miterlimit="10"/>
<path d="M104.056 16.3401H98.5923V20.1972H103.52V21.6593H98.5923V25.5164H104.056V27.013H97.0503V14.8456H104.056V16.3401Z" stroke="black" stroke-width="0.2" stroke-miterlimit="10"/>
<path d="M110.558 27.013H109.016V16.3401H105.664V14.8456H113.91V16.3401H110.558V27.013Z" stroke="black" stroke-width="0.2" stroke-miterlimit="10"/>
<path d="M119.876 27.013V14.8456H121.418V27.013H119.876Z" stroke="black" stroke-width="0.2" stroke-miterlimit="10"/>
<path d="M128.256 27.013H126.714V16.3401H123.362V14.8456H131.608V16.3401H128.256V27.013Z" stroke="black" stroke-width="0.2" stroke-miterlimit="10"/>
<path d="M147.218 25.4413C146.038 26.6703 144.572 27.2847 142.818 27.2847C141.064 27.2847 139.598 26.6703 138.42 25.4413C137.24 24.2124 136.652 22.7077 136.652 20.9293C136.652 19.1508 137.24 17.6461 138.42 16.4172C139.598 15.1883 141.064 14.5718 142.818 14.5718C144.562 14.5718 146.026 15.1903 147.21 16.4253C148.394 17.6603 148.986 19.1609 148.986 20.9293C148.986 22.7077 148.396 24.2124 147.218 25.4413ZM139.558 24.4213C140.446 25.3339 141.532 25.7881 142.818 25.7881C144.104 25.7881 145.192 25.3318 146.078 24.4213C146.966 23.5088 147.412 22.3447 147.412 20.9293C147.412 19.5138 146.966 18.3498 146.078 17.4372C145.192 16.5246 144.104 16.0704 142.818 16.0704C141.532 16.0704 140.446 16.5267 139.558 17.4372C138.672 18.3498 138.226 19.5138 138.226 20.9293C138.226 22.3447 138.672 23.5088 139.558 24.4213Z" stroke="black" stroke-width="0.2" stroke-miterlimit="10"/>
<path d="M151.15 27.013V14.8456H153.026L158.858 24.3098H158.924L158.858 21.9655V14.8456H160.4V27.013H158.79L152.688 17.0884H152.622L152.688 19.4327V27.013H151.15Z" stroke="black" stroke-width="0.2" stroke-miterlimit="10"/>
<path d="M52.2002 52.6787L28.6797 66.4443L28.6113 66.4844C27.7551 66.9961 26.7567 67.2881 25.6934 67.2881C23.2612 67.288 21.1475 65.6661 20.3164 63.4824L20.3564 63.4434L41.5869 41.9199L52.2002 52.6787ZM40.8838 41.207L20.0146 62.3633C19.9661 62.066 19.9395 61.7627 19.9395 61.4551V20.9619C19.9395 20.6533 19.9658 20.3489 20.0146 20.0508L40.8838 41.207ZM62.9502 36.123L62.9707 36.1367C64.7573 37.1278 65.9658 39.0475 65.9658 41.2559C65.9657 43.4801 64.741 45.4087 62.9365 46.3965L53.0908 52.1582L42.2891 41.208L53.0488 30.2998L62.9502 36.123ZM25.6934 15.1289C26.78 15.1289 27.7959 15.4336 28.666 15.9619L52.1582 29.7764L41.5859 40.4951L20.3555 18.9736L20.3164 18.9336C21.1476 16.7503 23.261 15.129 25.6934 15.1289Z" fill="black"/>
</svg>
