<svg width="108" height="106" viewBox="0 0 108 106" fill="none" xmlns="http://www.w3.org/2000/svg">
<g clip-path="url(#clip0_205_3531)">
<path d="M49.7796 56.3137C51.1506 56.6596 50.8105 57.9174 50.9702 58.7455C52.2891 65.548 50.3315 71.7566 47.1487 77.7346C43.4279 84.7223 36.9304 88.4712 29.947 91.6156C21.6828 95.3401 18.3959 94.4771 12.8321 87.5208C4.39785 76.9799 -0.374616 65.1986 0.0245355 51.7193C0.763834 26.7383 18.5695 6.149 43.7611 1.02352C68.9597 -4.10196 95.7654 10.4884 104.349 34.1662C111.357 53.5012 108.257 71.3373 95.2552 87.4929C90.6944 93.1564 86.1649 94.3373 79.0878 92.0104C64.8259 87.3252 56.0515 74.8696 56.8082 60.3387C56.8707 59.1682 57.1101 58.0083 57.3184 56.4884C59.1094 57.9628 60.6192 59.266 62.1915 60.4889C65.4611 63.0394 68.8487 65.4537 73.0484 66.3341C78.8344 67.55 85.9219 64.2064 89.4796 58.6581C93.2143 52.8339 93.2941 46.7755 90.0558 40.8255C86.6057 34.4911 80.6705 32.2411 73.576 32.3284L73.4545 32.3599C71.438 23.5659 62.9794 17.1197 53.7295 17.3363C44.3685 17.5564 36.4167 23.8803 34.7854 32.4018L34.6292 32.3878C33.8795 32.3983 33.1298 32.3843 32.3836 32.4298C27.743 32.6988 23.6127 34.0963 20.4368 37.5692C20.3257 37.688 20.2181 37.8068 20.1071 37.9291C17.9482 40.0079 16.8583 42.6108 16.1919 45.4234C14.2795 53.5291 18.4619 61.9004 25.8791 64.8213L25.8548 64.8073C26.0041 64.8946 26.1533 64.9855 26.3061 65.0728C26.5594 65.1846 26.8163 65.2929 27.0697 65.4047C28.2775 65.9009 29.5062 66.3166 30.8425 66.3201C31.2521 66.3516 31.6616 66.383 32.0712 66.411C32.9042 66.7289 33.7372 66.7254 34.5737 66.4145C35.1152 66.3725 35.6601 66.3341 36.2015 66.2922C37.4962 66.1035 38.8047 65.9638 39.9085 65.1776C40.0438 65.1427 40.1827 65.1113 40.318 65.0763C43.0288 64.0037 45.3057 62.393 46.9682 60.0207L46.9613 60.0312C48.0997 58.9341 49.0542 57.7078 49.7796 56.3137Z" fill="#126A3A"/>
<path d="M53.875 77.8989C57.103 87.8913 62.5835 96.4373 70.8997 103.586C59.6263 106.625 48.7728 107.027 37.5098 103.463C45.2568 96.1823 51.2719 88.1289 53.875 77.8989Z" fill="#126A3A"/>
<path d="M73.4543 32.3669L73.5758 32.3354C74.5511 41.7164 71.469 49.1898 62.7605 54.0288C59.3139 55.9434 57.7728 55.1608 57.3563 51.2896C56.44 42.8065 62.0247 35.3926 71.2607 32.8386C71.9757 32.6394 72.7185 32.5206 73.4543 32.3669Z" fill="#81B918"/>
<path d="M34.6325 32.3848C34.6325 32.3848 34.7887 32.4022 34.7887 32.3987C39.3563 33.4015 43.5839 35.0471 46.6972 38.6248C50.4597 42.9502 50.6575 48.0896 50.1195 53.3723C50.0189 54.3541 49.9009 55.3359 49.7898 56.3177C48.5299 55.1158 46.8569 54.6406 45.3158 53.9314V53.9453C42.2302 51.9084 39.2175 49.7911 37.0517 46.7585L37.0656 46.7724C35.7813 44.3896 35.1184 41.8112 34.5387 39.2048C34.5214 38.8065 34.504 38.4082 34.4867 38.0064C34.4797 36.808 34.4763 35.6061 34.4693 34.4077C34.4693 34.1422 34.4693 33.8766 34.4728 33.6111C34.5283 33.2093 34.5804 32.797 34.6325 32.3848Z" fill="#5C9247"/>
</g>
<defs>
<clipPath id="clip0_205_3531">
<rect width="108" height="106" fill="white"/>
</clipPath>
</defs>
</svg>
