<svg width="270" height="82" viewBox="0 0 270 82" fill="none" xmlns="http://www.w3.org/2000/svg">
<rect x="0.5" y="0.615234" width="269" height="80.1162" fill="white"/>
<rect x="0.5" y="0.615234" width="269" height="80.1162" stroke="black"/>
<path d="M122.628 62.98H118.144V48.2777C118.144 47.0737 118.232 45.6003 118.41 43.8575H118.334C118.055 44.8504 117.808 45.5633 117.593 45.9963L109.459 62.98H106.343L98.1901 46.1231C97.9621 45.6267 97.7214 44.8715 97.468 43.8575H97.392C97.4933 44.7659 97.544 46.2498 97.544 48.3094V62.98H93.3633V40.2612H99.7294L106.894 55.3912C107.438 56.5531 107.793 57.4191 107.958 57.9895H108.053C108.522 56.796 108.902 55.9088 109.193 55.3279L116.49 40.2612H122.628V62.98Z" fill="black"/>
<path d="M130.307 43.3506C129.584 43.3506 128.964 43.1552 128.444 42.7644C127.938 42.3736 127.684 41.8772 127.684 41.2751C127.684 40.6731 127.938 40.1714 128.444 39.77C128.964 39.3687 129.584 39.168 130.307 39.168C131.054 39.168 131.688 39.3687 132.207 39.77C132.726 40.1714 132.986 40.6731 132.986 41.2751C132.986 41.8455 132.726 42.3366 132.207 42.7485C131.688 43.1499 131.054 43.3506 130.307 43.3506ZM132.492 62.98H128.083V46.7568H132.492V62.98Z" fill="black"/>
<path d="M151.42 62.2354C149.862 62.9853 148.019 63.3603 145.89 63.3603C143.002 63.3603 140.671 62.6104 138.897 61.1106C137.123 59.6002 136.236 57.6462 136.236 55.2487C136.236 52.5765 137.187 50.4324 139.087 48.8164C141 47.1898 143.553 46.3766 146.745 46.3766C148.519 46.3766 150.084 46.6353 151.439 47.1529V50.575C150.084 49.73 148.639 49.3075 147.106 49.3075C145.244 49.3075 143.717 49.8356 142.527 50.8918C141.336 51.9375 140.74 53.3105 140.74 55.011C140.74 56.6904 141.298 58.0159 142.413 58.9876C143.54 59.9593 145.048 60.4452 146.935 60.4452C148.519 60.4452 150.014 59.9751 151.42 59.0351V62.2354Z" fill="black"/>
<path d="M166.32 50.2581C165.787 49.9096 165.021 49.7353 164.02 49.7353C162.715 49.7353 161.626 50.2264 160.752 51.2087C159.877 52.191 159.44 53.527 159.44 55.217V62.98H155.032V46.7568H159.44V50.0997H159.516C159.947 48.959 160.606 48.0718 161.493 47.4381C162.392 46.7938 163.393 46.4716 164.495 46.4716C165.293 46.4716 165.901 46.572 166.32 46.7726V50.2581Z" fill="black"/>
<path d="M177.285 63.3603C174.283 63.3603 171.882 62.6051 170.083 61.0947C168.297 59.5738 167.403 57.5617 167.403 55.0585C167.403 52.3335 168.335 50.2053 170.197 48.6738C172.072 47.1423 174.593 46.3766 177.76 46.3766C180.801 46.3766 183.17 47.1212 184.868 48.6104C186.565 50.0997 187.414 52.1645 187.414 54.805C187.414 57.3927 186.496 59.4682 184.659 61.0313C182.834 62.584 180.376 63.3603 177.285 63.3603ZM177.494 49.3075C175.771 49.3075 174.409 49.8092 173.409 50.8126C172.408 51.816 171.907 53.1996 171.907 54.9635C171.907 56.664 172.414 58.0053 173.428 58.9876C174.441 59.9593 175.797 60.4452 177.494 60.4452C179.23 60.4452 180.56 59.9646 181.485 59.0034C182.422 58.0423 182.891 56.6745 182.891 54.9001C182.891 53.1151 182.422 51.7368 181.485 50.7651C180.56 49.7934 179.23 49.3075 177.494 49.3075Z" fill="black"/>
<path d="M189.923 62.4731V59.0668C191.57 60.1125 193.388 60.6353 195.377 60.6353C198.038 60.6353 199.368 59.9804 199.368 58.6707C199.368 58.3011 199.254 57.9895 199.026 57.736C198.798 57.472 198.487 57.2396 198.095 57.0389C197.715 56.8382 197.259 56.6587 196.726 56.5002C196.207 56.3418 195.624 56.1623 194.978 55.9616C194.18 55.6975 193.458 55.4176 192.812 55.1219C192.178 54.8262 191.646 54.4935 191.215 54.1238C190.797 53.7436 190.481 53.3158 190.265 52.8405C190.05 52.3652 189.942 51.8107 189.942 51.177C189.942 50.3954 190.164 49.7089 190.607 49.1174C191.051 48.5154 191.646 48.0137 192.394 47.6123C193.141 47.2004 193.99 46.8941 194.94 46.6934C195.89 46.4822 196.872 46.3766 197.886 46.3766C199.685 46.3766 201.294 46.6037 202.713 47.0578V50.274C201.344 49.4924 199.773 49.1016 198 49.1016C197.442 49.1016 196.935 49.1491 196.479 49.2442C196.036 49.3392 195.656 49.4712 195.339 49.6402C195.022 49.8092 194.775 50.0152 194.598 50.2581C194.421 50.4905 194.332 50.7492 194.332 51.0344C194.332 51.383 194.421 51.6787 194.598 51.9216C194.775 52.1645 195.035 52.3811 195.377 52.5712C195.732 52.7507 196.15 52.9197 196.631 53.0782C197.126 53.226 197.689 53.3897 198.323 53.5693C199.159 53.8545 199.906 54.1449 200.565 54.4407C201.237 54.7364 201.807 55.0744 202.275 55.4546C202.744 55.8243 203.105 56.2573 203.359 56.7537C203.612 57.2396 203.739 57.8205 203.739 58.4965C203.739 59.3203 203.511 60.0385 203.055 60.6511C202.598 61.2637 201.99 61.7707 201.23 62.172C200.47 62.5734 199.59 62.8691 198.589 63.0593C197.601 63.2599 196.555 63.3603 195.453 63.3603C193.325 63.3603 191.482 63.0645 189.923 62.4731Z" fill="black"/>
<path d="M215.788 63.3603C212.785 63.3603 210.384 62.6051 208.585 61.0947C206.799 59.5738 205.906 57.5617 205.906 55.0585C205.906 52.3335 206.837 50.2053 208.699 48.6738C210.574 47.1423 213.095 46.3766 216.263 46.3766C219.303 46.3766 221.672 47.1212 223.37 48.6104C225.068 50.0997 225.916 52.1645 225.916 54.805C225.916 57.3927 224.998 59.4682 223.161 61.0313C221.337 62.584 218.879 63.3603 215.788 63.3603ZM215.997 49.3075C214.274 49.3075 212.912 49.8092 211.911 50.8126C210.91 51.816 210.41 53.1996 210.41 54.9635C210.41 56.664 210.916 58.0053 211.93 58.9876C212.943 59.9593 214.299 60.4452 215.997 60.4452C217.732 60.4452 219.063 59.9646 219.987 59.0034C220.925 58.0423 221.394 56.6745 221.394 54.9001C221.394 53.1151 220.925 51.7368 219.987 50.7651C219.063 49.7934 217.732 49.3075 215.997 49.3075Z" fill="black"/>
<path d="M240.645 41.9564C240.049 41.6712 239.372 41.5286 238.611 41.5286C236.47 41.5286 235.4 42.5373 235.4 44.5546V46.7568H239.923V49.6402H235.419V62.98H231.01V49.6402H227.684V46.7568H231.01V44.1269C231.01 42.4158 231.682 41.0692 233.024 40.0869C234.367 39.0941 236.046 38.5977 238.06 38.5977C239.15 38.5977 240.011 38.698 240.645 38.8987V41.9564Z" fill="black"/>
<path d="M252.542 62.8058C251.68 63.1649 250.546 63.3444 249.14 63.3444C245.365 63.3444 243.477 61.8341 243.477 58.8133V49.6402H240.227V46.7568H243.477V43.002L247.886 41.9564V46.7568H252.542V49.6402H247.886V57.7518C247.886 58.713 248.095 59.3995 248.513 59.8114C248.931 60.2234 249.628 60.4293 250.603 60.4293C251.351 60.4293 251.997 60.2498 252.542 59.8907V62.8058Z" fill="black"/>
<path d="M105.84 29.6118C104.155 30.3769 102.278 30.7594 100.209 30.7594C97.8174 30.7594 95.8805 30.1386 94.3986 28.8969C92.9167 27.6552 92.1758 26.0122 92.1758 23.9677C92.1758 21.8794 92.9844 20.1674 94.6017 18.8316C96.2265 17.4896 98.2875 16.8186 100.785 16.8186C102.583 16.8186 104.095 17.0381 105.321 17.4771V19.7817C104.08 19.0919 102.602 18.747 100.886 18.747C99.1639 18.747 97.7497 19.2205 96.644 20.1674C95.5457 21.1144 94.9966 22.3404 94.9966 23.8455C94.9966 25.3944 95.4705 26.6142 96.4183 27.5047C97.3661 28.3889 98.6524 28.8311 100.277 28.8311C101.39 28.8311 102.353 28.6523 103.166 28.2949V25.0872H99.7581V23.2058H105.84V29.6118Z" fill="black"/>
<path d="M119.047 26.31H111.171C111.201 27.2005 111.528 27.8872 112.153 28.3701C112.784 28.853 113.649 29.0944 114.748 29.0944C115.981 29.0944 117.113 28.7872 118.144 28.1726V29.9316C117.091 30.4835 115.699 30.7594 113.969 30.7594C112.269 30.7594 110.934 30.3236 109.964 29.4519C109.001 28.5739 108.519 27.3416 108.519 25.755C108.519 24.2562 109.05 23.0365 110.11 22.0958C111.178 21.1488 112.502 20.6754 114.082 20.6754C115.662 20.6754 116.884 21.0987 117.749 21.9453C118.614 22.7919 119.047 23.9677 119.047 25.4728V26.31ZM116.519 24.7673C116.512 23.9834 116.29 23.3751 115.853 22.9424C115.417 22.5034 114.815 22.2839 114.048 22.2839C113.296 22.2839 112.657 22.5128 112.13 22.9706C111.611 23.4284 111.291 24.0273 111.171 24.7673H116.519Z" fill="black"/>
<path d="M127.864 30.4302C127.353 30.6434 126.68 30.75 125.845 30.75C123.603 30.75 122.482 29.8533 122.482 28.0597V22.6132H120.553V20.9011H122.482V18.6717L125.1 18.0509V20.9011H127.864V22.6132H125.1V27.4294C125.1 28.0001 125.224 28.4077 125.472 28.6523C125.72 28.8969 126.134 29.0192 126.713 29.0192C127.157 29.0192 127.541 28.9126 127.864 28.6994V30.4302Z" fill="black"/>
<path d="M138.267 18.8787C137.838 18.8787 137.47 18.7627 137.161 18.5306C136.86 18.2986 136.71 18.0038 136.71 17.6464C136.71 17.2889 136.86 16.991 137.161 16.7527C137.47 16.5144 137.838 16.3953 138.267 16.3953C138.711 16.3953 139.087 16.5144 139.395 16.7527C139.704 16.991 139.858 17.2889 139.858 17.6464C139.858 17.985 139.704 18.2766 139.395 18.5212C139.087 18.7595 138.711 18.8787 138.267 18.8787ZM139.565 30.5337H136.947V20.9011H139.565V30.5337Z" fill="black"/>
<path d="M149.319 30.4302C148.807 30.6434 148.134 30.75 147.299 30.75C145.057 30.75 143.937 29.8533 143.937 28.0597V22.6132H142.007V20.9011H143.937V18.6717L146.554 18.0509V20.9011H149.319V22.6132H146.554V27.4294C146.554 28.0001 146.678 28.4077 146.927 28.6523C147.175 28.8969 147.589 29.0192 148.168 29.0192C148.612 29.0192 148.995 28.9126 149.319 28.6994V30.4302Z" fill="black"/>
<path d="M164.934 18.0509C164.581 17.8816 164.178 17.7969 163.727 17.7969C162.456 17.7969 161.82 18.3958 161.82 19.5936V20.9011H164.506V22.6132H161.831V30.5337H159.214V22.6132H157.239V20.9011H159.214V19.3396C159.214 18.3237 159.612 17.5241 160.41 16.9409C161.207 16.3514 162.204 16.0566 163.4 16.0566C164.047 16.0566 164.558 16.1162 164.934 16.2354V18.0509Z" fill="black"/>
<path d="M173.301 22.98C172.985 22.7731 172.53 22.6696 171.935 22.6696C171.161 22.6696 170.514 22.9612 169.995 23.5444C169.476 24.1277 169.216 24.921 169.216 25.9244V30.5337H166.598V20.9011H169.216V22.886H169.261C169.517 22.2087 169.908 21.6819 170.435 21.3056C170.969 20.9231 171.563 20.7318 172.217 20.7318C172.691 20.7318 173.052 20.7914 173.301 20.9105V22.98Z" fill="black"/>
<path d="M180.505 30.7594C178.722 30.7594 177.297 30.3111 176.228 29.4143C175.168 28.5112 174.637 27.3166 174.637 25.8303C174.637 24.2123 175.19 22.9487 176.296 22.0394C177.409 21.13 178.906 20.6754 180.787 20.6754C182.592 20.6754 183.999 21.1175 185.007 22.0017C186.015 22.886 186.519 24.112 186.519 25.6798C186.519 27.2162 185.973 28.4485 184.883 29.3766C183.799 30.2985 182.34 30.7594 180.505 30.7594ZM180.629 22.4156C179.606 22.4156 178.797 22.7135 178.203 23.3093C177.609 23.905 177.312 24.7266 177.312 25.7738C177.312 26.7835 177.612 27.58 178.214 28.1632C178.816 28.7401 179.621 29.0286 180.629 29.0286C181.659 29.0286 182.449 28.7433 182.998 28.1726C183.555 27.6019 183.833 26.7898 183.833 25.7362C183.833 24.6764 183.555 23.858 182.998 23.2811C182.449 22.7041 181.659 22.4156 180.629 22.4156Z" fill="black"/>
<path d="M206.699 30.5337H204.081V25.2847C204.081 24.275 203.908 23.5444 203.562 23.0929C203.223 22.6414 202.648 22.4156 201.835 22.4156C201.151 22.4156 200.568 22.701 200.087 23.2716C199.613 23.8423 199.376 24.5259 199.376 25.3223V30.5337H196.747V25.106C196.747 23.3124 195.987 22.4156 194.468 22.4156C193.76 22.4156 193.177 22.6853 192.719 23.2246C192.267 23.7639 192.042 24.4632 192.042 25.3223V30.5337H189.424V20.9011H192.042V22.425H192.087C192.922 21.2586 194.137 20.6754 195.731 20.6754C196.529 20.6754 197.224 20.8604 197.819 21.2304C198.42 21.5941 198.83 22.0738 199.049 22.6696C199.906 21.3401 201.185 20.6754 202.885 20.6754C205.427 20.6754 206.699 21.9829 206.699 24.598V30.5337Z" fill="black"/>
<rect x="19.459" y="16.3384" width="26.7568" height="22.307" fill="black"/>
<rect x="19.459" y="40.6733" width="26.7568" height="22.307" fill="black"/>
<rect x="48.6484" y="16.3384" width="26.7568" height="22.307" fill="black"/>
<rect x="48.6484" y="40.6733" width="26.7568" height="22.307" fill="black"/>
</svg>
